# xmcd
#
# Track frame offsets:
#  150
#  12723
#  22868
#  37754
#  50938
#  62555
#  75188
#  85723
#  98068
#  106938
#  116625
#  128494
#  139995
#  152321
#  164713
#  175987
#  187970
#  201938
#  214530
#  226243
#  238363
#  251478
#
# Disc length: 3523 seconds
#
# Revision: 0
# Processed by: cddbd v1.5.1PL2 Copyright (c) Steve Scherf et al.
# Submitted via: Collectorz.com_Music_Collector 6.11
#
DISCID=1b0dc116
DTITLE=Sam Cooke - All Hits
DYEAR=2000
DGENRE=Blues Soul - Soul
TTITLE0=You Send Me
TTITLE1=I'll Come Running Back To You
TTITLE2=(I Love You) For Sentimental Reasons
TTITLE3=You Were Made For Me
TTITLE4=Lonely Island
TTITLE5=Win Your Love For Me
TTITLE6=Love You Most Of All
TTITLE7=Everybody Likes To Cha Cha Cha
TTITLE8=Only Sixteen
TTITLE9=Wonderful World
TTITLE10=Chain Gang
TTITLE11=Cupid
TTITLE12=Twistin' The Nite Away
TTITLE13=Bring It On Home To Me
TTITLE14=Having A Party
TTITLE15=Nothing Can Change This Love
TTITLE16=Somebody Have Mercy
TTITLE17=Send Me Some Lovin'
TTITLE18=Another Saturday Night
TTITLE19=Frankie and Johnny
TTITLE20=Little Red Rooster
TTITLE21=Shake
EXTD=
EXTT0=
EXTT1=
EXTT2=
EXTT3=
EXTT4=
EXTT5=
EXTT6=
EXTT7=
EXTT8=
EXTT9=
EXTT10=
EXTT11=
EXTT12=
EXTT13=
EXTT14=
EXTT15=
EXTT16=
EXTT17=
EXTT18=
EXTT19=
EXTT20=
EXTT21=
PLAYORDER=
